<svg width="76" height="43" viewBox="0 0 76 43" fill="none" xmlns="http://www.w3.org/2000/svg">
<path d="M76 13.7648C76 7.75481 70.9401 2.90805 64.767 2.90805C61.9334 2.90805 59.3023 3.87741 57.2783 5.62224C52.1172 2.03564 45.7417 0 38.8602 0C31.5739 0 24.8948 2.32644 19.5313 6.30078C17.5073 4.26515 14.5726 2.90805 11.3342 2.90805C5.05992 2.90805 0 7.75481 0 13.7648C0 18.5146 3.23835 22.5859 7.69108 24.0399C7.18509 26.1725 6.98269 28.3051 6.98269 30.5346C6.98269 34.7028 7.89348 38.6771 9.41145 42.2637H29.2463C28.4368 40.325 28.2344 38.1924 28.2344 35.7691C28.2344 28.6928 32.5859 22.9736 37.9494 22.9736C43.3129 22.9736 47.6644 28.6928 47.6644 35.7691C47.6644 38.0955 47.5632 40.325 46.6525 42.1668H68.3089C69.8269 38.5802 70.7377 34.7028 70.7377 30.5346C70.7377 28.1112 70.4341 25.6878 69.8269 23.3614C73.5712 21.6165 76 17.933 76 13.7648Z" fill="#89D4F3"/>
<path d="M36.0266 20.6472C36.5296 20.6472 36.9374 19.9094 36.9374 18.9993C36.9374 18.0892 36.5296 17.3514 36.0266 17.3514C35.5236 17.3514 35.1158 18.0892 35.1158 18.9993C35.1158 19.9094 35.5236 20.6472 36.0266 20.6472Z" fill="#122659"/>
<path d="M39.3661 20.6472C39.8691 20.6472 40.2769 19.9094 40.2769 18.9993C40.2769 18.0892 39.8691 17.3514 39.3661 17.3514C38.8631 17.3514 38.4553 18.0892 38.4553 18.9993C38.4553 19.9094 38.8631 20.6472 39.3661 20.6472Z" fill="#122659"/>
<path d="M43.6166 34.2181C43.6166 37.8047 40.277 41.9729 38.1519 41.9729C36.0267 41.9729 32.6871 37.8047 32.6871 34.2181C32.6871 30.6315 35.1159 27.8204 38.1519 27.8204C41.1878 27.8204 43.6166 30.6315 43.6166 34.2181Z" fill="#FF944C"/>
<path opacity="0.49" d="M39.5686 35.0905C40.351 35.0905 40.9854 34.1791 40.9854 33.0549C40.9854 31.9306 40.351 31.0193 39.5686 31.0193C38.7861 31.0193 38.1518 31.9306 38.1518 33.0549C38.1518 34.1791 38.7861 35.0905 39.5686 35.0905Z" fill="white"/>
</svg>
