<?xml version="1.0" standalone="no"?>
<!DOCTYPE svg PUBLIC "-//W3C//DTD SVG 20010904//EN"
 "http://www.w3.org/TR/2001/REC-SVG-20010904/DTD/svg10.dtd">
<svg version="1.0" xmlns="http://www.w3.org/2000/svg"
 width="1216.000000pt" height="1216.000000pt" viewBox="0 0 1216.000000 1216.000000"
 preserveAspectRatio="xMidYMid meet">
<metadata>
Created by potrace 1.11, written by Peter Selinger 2001-2013
</metadata>
<g transform="translate(0.000000,1216.000000) scale(0.100000,-0.100000)"
fill="#000000" stroke="none">
<path d="M5949 9515 c-2 -1 -54 -6 -116 -10 -61 -3 -122 -8 -135 -10 -13 -2
-52 -6 -88 -9 -36 -4 -74 -8 -85 -10 -11 -2 -42 -7 -70 -10 -76 -10 -202 -32
-295 -51 -14 -3 -38 -8 -55 -11 -16 -3 -55 -11 -85 -19 -30 -8 -67 -16 -82
-19 -15 -2 -31 -7 -36 -10 -5 -3 -19 -7 -33 -10 -111 -24 -492 -147 -574 -186
-11 -5 -44 -19 -74 -30 -54 -21 -85 -34 -211 -93 -36 -17 -67 -31 -70 -32 -12
-3 -105 -50 -110 -55 -3 -3 -34 -20 -70 -38 -36 -18 -87 -46 -115 -62 -27 -17
-59 -35 -70 -40 -11 -6 -55 -32 -98 -60 -43 -27 -83 -50 -88 -50 -5 0 -9 -4
-9 -10 0 -5 -6 -10 -14 -10 -8 0 -16 -3 -18 -8 -1 -4 -27 -23 -56 -41 -30 -19
-59 -39 -65 -46 -7 -6 -27 -20 -44 -30 -18 -11 -33 -23 -33 -27 0 -24 -44 1
-110 62 -41 38 -78 70 -82 70 -4 0 -13 6 -21 14 -39 39 -296 196 -321 196 -7
0 -16 4 -21 9 -6 5 -35 19 -65 31 -30 12 -64 26 -75 30 -40 17 -184 58 -210
61 -2 0 -19 5 -37 10 -18 5 -51 12 -73 15 -22 3 -51 8 -65 10 -91 17 -337 23
-445 10 -125 -15 -160 -21 -260 -46 -44 -12 -90 -23 -103 -26 -35 -7 -101 -32
-204 -78 -32 -14 -58 -22 -58 -18 0 4 -4 2 -8 -4 -4 -5 -37 -26 -73 -46 -118
-64 -103 -54 -218 -139 -86 -65 -154 -123 -202 -174 -16 -16 -49 -52 -75 -80
-25 -27 -60 -70 -77 -95 -17 -25 -34 -47 -37 -50 -14 -11 -99 -150 -92 -150 4
0 2 -4 -3 -8 -10 -7 -48 -82 -87 -170 -22 -52 -66 -183 -74 -221 -3 -12 -11
-51 -19 -85 -24 -105 -30 -176 -29 -341 0 -146 5 -216 19 -285 3 -14 7 -34 9
-45 20 -97 57 -220 92 -300 10 -22 18 -42 19 -45 3 -12 60 -125 65 -130 3 -3
11 -16 18 -30 18 -38 23 -45 113 -170 59 -82 310 -340 330 -340 6 0 17 -6 24
-12 32 -29 47 -40 115 -84 85 -55 278 -154 301 -154 8 0 19 -4 25 -9 5 -5 26
-14 46 -21 47 -14 49 -19 38 -61 -5 -19 -12 -47 -15 -64 -2 -16 -7 -43 -10
-60 -26 -145 -32 -182 -40 -250 -2 -22 -7 -60 -10 -85 -11 -97 -17 -167 -20
-264 -2 -56 -5 -101 -5 -101 -1 0 -3 -12 -4 -27 -1 -16 2 -28 7 -28 4 0 5 -5
1 -12 -11 -18 -11 -131 -1 -145 6 -8 6 -13 0 -13 -5 0 -8 -19 -6 -43 2 -23 5
-87 8 -142 7 -164 18 -280 40 -420 3 -16 7 -46 9 -65 5 -30 28 -155 40 -215
29 -137 40 -183 62 -260 14 -49 26 -97 28 -105 1 -8 13 -49 26 -90 13 -41 25
-79 26 -85 1 -5 21 -62 44 -125 23 -63 45 -124 48 -135 3 -11 12 -30 20 -42 8
-13 10 -23 6 -23 -5 0 -4 -4 1 -8 6 -4 15 -20 20 -36 l10 -29 226 0 c125 0
231 3 237 7 6 3 13 3 16 -2 4 -6 111 -8 141 -2 6 1 15 2 20 0 27 -5 775 -1
784 4 5 4 12 3 15 -2 4 -6 111 -8 141 -2 6 1 15 2 20 1 6 -2 362 -3 793 -4
692 -2 782 0 776 13 -32 81 -80 232 -90 284 -2 12 -6 33 -9 48 -4 15 -8 41
-10 58 -3 18 -6 39 -9 49 -3 9 -8 45 -11 81 -4 36 -8 76 -10 90 -2 14 -7 74
-10 134 -3 60 -8 113 -11 117 -2 4 0 10 6 14 6 4 7 11 4 17 -9 13 -8 206 1
323 13 166 14 180 32 260 4 17 7 39 8 50 1 16 8 51 20 105 1 3 7 25 14 50 7
25 15 56 18 69 2 13 9 34 15 45 6 12 11 23 10 26 -2 7 16 67 32 105 7 17 24
57 37 90 41 107 170 345 191 353 4 2 8 8 8 13 0 36 258 324 355 397 109 82
165 117 257 163 35 17 75 38 90 46 15 7 30 14 33 14 2 0 10 1 17 4 38 12 176
48 198 51 180 24 337 22 450 -6 19 -5 46 -11 60 -13 14 -3 52 -15 85 -27 33
-12 69 -24 80 -28 35 -10 184 -91 245 -132 142 -97 278 -227 386 -370 49 -64
144 -206 144 -214 0 -3 14 -28 30 -56 17 -28 30 -57 30 -65 0 -7 4 -15 8 -17
15 -6 115 -252 128 -313 2 -11 8 -31 14 -45 12 -32 47 -173 54 -221 3 -20 7
-42 10 -50 3 -8 8 -34 11 -59 3 -25 8 -56 10 -70 19 -135 25 -502 11 -705 -8
-111 -13 -160 -16 -160 -1 0 -3 -18 -4 -40 -3 -48 -13 -100 -33 -180 -8 -33
-17 -67 -18 -75 -2 -8 -4 -16 -5 -17 -2 -2 -3 -7 -4 -12 0 -5 -4 -13 -9 -17
-4 -4 -7 -15 -7 -24 0 -9 -11 -40 -25 -68 -14 -29 -25 -56 -25 -60 0 -9 3456
-11 3462 -2 2 3 14 32 27 65 13 33 29 74 36 90 7 17 28 73 45 125 18 52 36
104 41 115 7 18 42 132 44 145 0 3 4 11 8 18 5 6 6 12 3 12 -3 0 2 19 10 42 8
23 16 53 19 67 3 14 12 53 21 86 8 33 17 69 20 80 2 11 6 31 9 45 6 26 12 57
20 100 3 14 7 34 9 45 2 11 7 40 11 65 4 25 9 53 11 64 3 18 8 58 19 156 4 30
8 66 10 79 12 70 19 262 19 466 0 207 -4 293 -20 450 -3 28 -7 68 -9 90 -4 42
-6 60 -31 210 -17 100 -23 130 -29 160 -5 25 -42 195 -47 214 -2 8 21 26 57
45 65 34 124 67 140 78 209 151 274 209 403 358 39 46 156 221 174 260 7 17
16 30 20 30 5 0 8 4 8 10 0 8 13 39 65 155 18 40 74 231 81 275 3 19 12 71 19
115 7 49 11 147 10 250 -3 160 -7 205 -22 265 -3 14 -6 28 -5 33 5 22 -61 238
-98 322 -10 22 -26 58 -36 80 -25 56 -96 179 -106 183 -4 2 -8 8 -8 14 0 13
-101 149 -155 207 -59 64 -168 169 -206 197 -18 13 -35 27 -38 31 -10 13 -160
113 -170 113 -5 0 -11 4 -13 8 -3 8 -170 92 -248 125 -75 31 -239 80 -310 92
-19 3 -43 8 -53 11 -96 29 -449 35 -587 10 -14 -2 -47 -8 -75 -12 -58 -8 -51
-7 -135 -28 -92 -24 -193 -57 -205 -67 -5 -5 -15 -9 -23 -9 -15 0 -253 -117
-262 -128 -3 -4 -16 -13 -30 -20 -14 -7 -66 -44 -116 -81 l-91 -68 -59 38
c-32 22 -63 42 -69 47 -27 21 -184 115 -290 174 -53 29 -294 149 -385 191 -66
31 -293 122 -370 149 -82 28 -242 79 -264 83 -11 3 -40 11 -65 19 -25 8 -75
22 -111 31 -36 9 -69 18 -75 19 -5 2 -28 6 -50 10 -22 4 -53 12 -70 16 -30 9
-67 16 -135 26 -19 3 -52 10 -72 15 -20 5 -40 9 -45 8 -4 -1 -10 -1 -13 1 -5
1 -45 8 -95 14 -16 3 -52 7 -80 11 -27 4 -66 8 -85 10 -19 2 -57 7 -85 10 -27
4 -79 9 -115 11 -81 6 -677 14 -681 9z"/>
<path d="M6005 5063 c-72 -13 -162 -38 -193 -53 -20 -10 -40 -16 -44 -13 -5 2
-8 -1 -8 -6 0 -6 -6 -11 -13 -11 -7 0 -36 -16 -66 -36 -174 -117 -300 -280
-381 -489 -63 -163 -85 -436 -49 -609 22 -110 61 -228 105 -323 19 -40 34 -77
34 -83 0 -5 4 -10 9 -10 5 0 11 -8 14 -17 15 -47 142 -232 209 -305 18 -20 40
-44 49 -55 53 -61 170 -152 254 -196 146 -77 265 -66 427 40 123 81 294 266
395 428 34 54 133 246 133 257 0 4 5 19 12 35 6 15 12 30 13 33 0 3 6 21 13
41 7 20 15 45 17 55 2 10 9 37 15 59 17 67 24 135 24 240 1 90 -3 134 -19 245
-16 115 -128 363 -203 450 -145 169 -298 268 -482 312 -45 10 -227 18 -265 11z"/>
</g>
</svg>
