<svg width="32" height="32" viewBox="0 0 32 32" fill="none" xmlns="http://www.w3.org/2000/svg">
<path d="M20 31.4688V22H22C22.5625 22 23.0365 21.8698 23.4219 21.6094C23.8073 21.349 24 21.0312 24 20.6562V19.3438C24 18.9688 23.8073 18.651 23.4219 18.3906C23.0365 18.1302 22.5625 18 22 18H20V14C20 13.4375 20.1979 12.9635 20.5938 12.5781C20.9896 12.1927 21.4635 12 22.0156 12C22.5677 12 23.0365 11.8698 23.4219 11.6094C23.8073 11.349 24 11.0312 24 10.6562V9.34375C24 8.96875 23.8073 8.65104 23.4219 8.39062C23.0365 8.13021 22.5625 8 22 8C19.7917 8 18.2396 8.44792 17.3438 9.34375C16.4479 10.2396 16 11.7917 16 14V18C15.4583 18 14.9896 18.1302 14.5938 18.3906C14.1979 18.651 14 18.9688 14 19.3438V20.6562C14 21.0312 14.1979 21.349 14.5938 21.6094C14.9896 21.8698 15.4583 22 16 22V32C13.8333 32 11.7604 31.5781 9.78125 30.7344C7.80208 29.8906 6.09896 28.7552 4.67188 27.3281C3.24479 25.901 2.10938 24.1979 1.26562 22.2188C0.421875 20.2396 0 18.1667 0 16C0 13.8333 0.421875 11.7604 1.26562 9.78125C2.10938 7.80208 3.24479 6.09896 4.67188 4.67188C6.09896 3.24479 7.80208 2.10938 9.78125 1.26562C11.7604 0.421875 13.8333 0 16 0C18.1667 0 20.2396 0.421875 22.2188 1.26562C24.1979 2.10938 25.901 3.24479 27.3281 4.67188C28.7552 6.09896 29.8906 7.80208 30.7344 9.78125C31.5781 11.7604 32 13.8333 32 16C32 19.6875 30.8698 22.9635 28.6094 25.8281C26.349 28.6927 23.4792 30.5729 20 31.4688Z" fill="#3F88DB"/>
</svg>
