<svg width="103" height="123" viewBox="0 0 103 123" fill="none" xmlns="http://www.w3.org/2000/svg">
<g clip-path="url(#clip0)">
<path d="M71.3075 10.1477C58.0215 3.22725 37.4303 7.83438 23.8943 14.2761C11.0757 20.2538 4.6192 30.9815 5.73067 42.6127C6.87571 53.9294 14.0134 63.6281 22.3599 71.8339C26.0142 75.4361 29.9402 78.8765 34.0188 82.0788C40.5856 87.296 42.7989 90.3945 43.2172 91.8385C44.2858 96.723 47.3511 111.202 48.5173 112.79C50.1262 114.997 53.5972 114.954 57.0591 114.402C61.6932 113.592 72.5338 112.142 74.8569 108.256C76.1878 105.917 71.5289 87.8967 70.964 84.847C72.1178 77.0195 77.976 70.1079 81.1783 62.7536C84.7743 54.3918 87.0271 45.505 86.7736 36.8595C86.5352 26.8799 81.2475 15.3434 71.3075 10.1477ZM41.8142 10.5604C43.768 10.133 45.8409 9.7819 47.816 9.45215C61.5568 10.0288 68.8136 26.3551 70.7432 36.579C73.6956 52.4138 67.6728 69.8028 62.5686 75.014C60.279 75.3102 58.0871 75.585 55.8402 76.0766C53.5565 64.7018 43.6766 18.1375 41.8142 10.5604ZM30.6319 13.7234C33.2054 12.8533 35.8002 12.0809 38.4165 11.4061C40.3643 19.3739 50.7662 65.517 53.1049 76.675C50.9557 77.1452 48.8279 77.713 46.6238 78.3999C39.1108 74.004 28.8654 66.009 23.6966 47.9975C19.5139 33.5577 22.0841 20.5069 30.6319 13.7234ZM33.4784 78.2048C26.7072 72.5206 20.2626 66.4579 15.2527 59.4671C7.70597 48.8343 4.27429 33.6161 15.3741 22.5891C17.8987 20.0918 20.9209 17.9975 24.3431 16.3276C17.3859 24.2986 17.719 38.4545 20.6346 48.9744C25.7485 67.2027 38.9612 76.5959 43.5619 79.3769C41.6722 80.0974 39.8039 80.9156 37.8379 81.7552C36.3664 80.644 34.8736 79.4351 33.4784 78.2048ZM72.7107 104.528C72.8664 106.644 73.1992 107.697 71.1019 108.873C68.9283 110.167 54.5436 114.133 51.0786 112.332C49.3354 111.382 48.3767 106.064 47.9737 103.286C55.2974 102.606 62.502 101.848 71.4955 98.0382C71.9443 100.09 72.4572 102.434 72.7107 104.528ZM71.0772 96.5942C60.8473 100.368 54.2167 101.409 47.5676 101.43C46.7647 98.228 46.038 94.9065 45.2351 91.7041C52.9526 90.0158 61.1249 88.535 68.9614 86.9229C69.4713 90.1894 70.1766 93.4132 71.0772 96.5942ZM69.1537 84.5265C61.1432 86.279 52.6228 88.0406 44.5909 89.6954C43.156 87.3478 41.5685 85.2384 39.3949 83.2571C50.0735 78.2594 60.1111 76.8824 71.8492 76.2594C70.68 78.8696 69.6299 81.5561 69.1537 84.5265ZM84.3589 42.1989C83.7912 49.8981 81.2057 57.7317 77.8844 65.0097C76.4313 68.1938 74.621 71.1489 73.0275 74.159C70.6952 74.2598 68.4819 74.4369 66.2686 74.614C70.3134 68.3038 77.6613 53.6959 73.6648 35.428C70.9292 22.9237 64.7898 13.1091 55.2588 8.84754C60.1616 8.79859 64.921 9.49759 69.1339 11.4421C81.156 16.7965 85.1432 31.279 84.3589 42.1989Z" fill="#7669DF"/>
</g>
<defs>
<clipPath id="clip0">
<rect y="17.3538" width="81.2" height="107.3" transform="rotate(-12.3403 0 17.3538)" fill="white"/>
</clipPath>
</defs>
</svg>
