<svg width="67" height="66" viewBox="0 0 67 66" fill="none" xmlns="http://www.w3.org/2000/svg">
<path d="M41.5184 51.6255C43.1455 54.195 44.6353 56.941 46.1644 59.4909C46.9289 60.7658 48.8119 59.5112 48.0474 58.2362C46.538 55.5883 45.0285 52.9403 43.4014 50.3708C42.6369 49.0958 40.7539 50.3505 41.5184 51.6255Z" fill="#FFC85B"/>
<path d="M27.6922 51.4063C27.319 53.7792 26.8674 56.0344 26.3961 58.3877C26.1016 59.8585 28.2587 60.2905 28.5533 58.8197C29.0246 56.4664 29.4762 54.2112 29.8494 51.8383C30.1439 50.3675 27.8887 49.9158 27.6922 51.4063Z" fill="#FFC85B"/>
<path d="M19.1235 45.8148C17.1031 47.2459 15.3964 49.1478 13.2192 50.3436C11.9639 51.0101 13.2186 52.8931 14.4739 52.2266C16.6511 51.0309 18.4558 49.1486 20.3781 47.6978C21.5747 46.8156 20.32 44.9326 19.1235 45.8148Z" fill="#FFC85B"/>
<path d="M12.9097 33.0461C10.4584 32.5552 8.00703 32.0643 5.65376 31.593C4.18296 31.2984 3.73133 33.5537 5.20212 33.8482C7.65345 34.3391 10.1048 34.83 12.4581 35.3013C13.9485 35.4978 14.3805 33.3406 12.9097 33.0461Z" fill="#FFC85B"/>
<path d="M52.2677 43.2736C54.4249 43.7056 56.484 44.118 58.6412 44.55C60.112 44.8445 60.5636 42.5893 59.0928 42.2947C56.9357 41.8627 54.8765 41.4504 52.7194 41.0184C51.3466 40.7435 50.895 42.9987 52.2677 43.2736Z" fill="#FFC85B"/>
<path d="M37.8799 14.7939C38.9004 12.2447 39.1364 9.53834 39.7843 6.81249C40.0788 5.34169 37.902 5.00775 37.529 6.36086C37.0381 8.81219 36.7433 11.3028 35.8406 13.7736C35.2519 15.1855 37.2912 16.2058 37.8799 14.7939Z" fill="#FFC85B"/>
<path d="M50.1938 23.583C53.1359 22.1325 55.686 20.0935 58.5693 18.4273C59.8442 17.6628 58.5699 15.8778 57.3146 16.5443C54.6667 18.0537 52.3127 20.1319 49.508 21.406C48.135 22.1509 48.8405 24.2299 50.1938 23.583Z" fill="#FFC85B"/>
<path d="M22.2884 15.751C20.9162 13.4365 19.7793 10.9651 18.2697 8.82708C17.3875 7.63055 15.6025 8.90486 16.3867 10.0818C17.8963 12.2198 19.1312 14.7108 20.4054 17.0057C21.1895 18.1826 23.0726 16.9279 22.2884 15.751Z" fill="#FFC85B"/>
<path d="M48.5083 19.2681C44.3713 14.9721 34.8603 12.5575 27.9763 13.8305C25.6424 14.281 21.7589 15.8489 20.6801 16.6527C10.7549 23.4358 9.63358 37.1833 16.9074 45.677C24.1615 54.2687 38.0659 55.1155 47.1084 49.1754C57.4454 42.3728 56.4686 27.3893 48.5083 19.2681ZM43.5391 49.1745C34.6538 53.8202 22.3779 49.934 16.8691 41.7938C12.0073 34.4971 13.8147 21.9069 21.8566 17.3983C23.9161 16.2809 27.4465 14.9482 30.3295 14.8116C36.8994 14.5976 44.5274 18.2669 47.978 22.4254C55.2321 31.0171 53.3265 44.0976 43.5391 49.1745Z" fill="#FFC85B"/>
<path d="M46.4267 30.1716C45.7601 29.4262 44.5832 30.2103 45.0144 31.1126C50.4442 41.6846 37.0093 45.1133 29.8711 43.5818C25.8706 42.6786 22.9491 39.9519 21.1262 36.3233C18.4602 31.302 20.2853 26.7722 23.2869 22.478C23.5616 22.1251 23.2283 21.7524 22.7968 21.8699C17.8539 24.6535 17.519 30.9096 19.0867 35.8129C20.7916 41.0496 25.223 44.3847 30.4001 45.5235C35.7538 46.7996 41.4219 45.487 45.4236 41.801C48.1895 39.1934 49.4069 33.1141 46.4267 30.1716Z" fill="#FFC85B"/>
<path d="M41.5827 29.9154C41.4653 28.974 40.8183 28.1306 39.9751 27.7577C39.5045 27.5615 38.9161 27.4437 38.3866 27.5416C37.6413 27.6983 36.6214 28.208 36.6405 30.1495C36.6599 31.0713 37.2481 31.699 37.9932 32.0522C38.7187 32.5034 39.9543 32.4449 40.7781 31.896C41.4843 31.4255 41.7394 30.6607 41.5827 29.9154ZM39.8958 31.2094C39.5623 31.3466 38.7583 31.2875 38.4053 31.0129C37.8759 30.6009 37.778 30.0714 37.8565 29.6791C37.9351 29.2869 38.504 28.483 39.7198 29.0324C40.014 29.0913 41.4649 30.5037 39.8958 31.2094Z" fill="#FFC85B"/>
<path d="M31.7972 27.3438C31.6797 26.4025 31.0328 25.559 30.1896 25.1862C29.7189 24.9899 29.1306 24.8721 28.6011 24.97C27.8558 25.1267 26.8359 25.6364 26.855 27.5779C26.8744 28.4997 27.4626 29.1274 28.2077 29.4806C28.9332 29.9319 30.1688 29.8733 30.9926 29.3244C31.6987 28.8539 31.8558 28.0695 31.7972 27.3438ZM30.1102 28.6378C29.7768 28.775 28.9728 28.7159 28.6198 28.4413C28.0904 28.0293 27.9925 27.4998 28.071 27.1076C28.1496 26.7154 28.7185 25.9114 29.9343 26.4609C30.2284 26.5198 31.5813 27.9125 30.1102 28.6378Z" fill="#FFC85B"/>
</svg>
