<svg width="32" height="32" viewBox="0 0 32 32" fill="none" xmlns="http://www.w3.org/2000/svg">
<path fill-rule="evenodd" clip-rule="evenodd" d="M16 32C24.8365 32 32 24.8365 32 16C32 7.16345 24.8365 0 16 0C7.16345 0 0 7.16345 0 16C0 24.8365 7.16345 32 16 32ZM24.531 10.108C24.7981 10.8168 24.9399 11.5666 24.95 12.324C25.0058 13.2767 25.006 13.5882 25.008 15.9999V16.033C25.008 18.476 24.995 18.781 24.952 19.743C24.937 20.492 24.796 21.23 24.533 21.93C24.3011 22.5277 23.9472 23.0705 23.4938 23.5238C23.0405 23.9772 22.4977 24.3311 21.9 24.563C21.2003 24.8256 20.4612 24.9673 19.714 24.982C18.759 25.038 18.446 25.038 16.004 25.038C13.562 25.038 13.257 25.025 12.294 24.982C11.5454 24.9574 10.8064 24.8052 10.109 24.532C9.51108 24.3006 8.96799 23.947 8.51443 23.4938C8.06088 23.0406 7.70688 22.4978 7.47501 21.9C7.21201 21.199 7.07101 20.461 7.056 19.713C7 18.757 7 18.445 7 16.003C7 13.561 7.013 13.256 7.056 12.293C7.07013 11.5461 7.21182 10.8071 7.47501 10.108C7.70648 9.51007 8.06024 8.96701 8.51364 8.51364C8.96701 8.06024 9.51007 7.70648 10.108 7.47501C10.8073 7.21246 11.5462 7.07047 12.293 7.05499C13.248 7 13.561 7 16.003 7C18.445 7 18.75 7.01199 19.712 7.05499C20.4592 7.07034 21.1983 7.21237 21.898 7.47501C22.4958 7.70667 23.0388 8.06046 23.4922 8.51382C23.9455 8.96719 24.2993 9.51016 24.531 10.108ZM11.374 15.998C11.374 18.552 13.443 20.621 15.997 20.621C17.2231 20.621 18.399 20.1339 19.266 19.267C20.1329 18.4 20.62 17.2241 20.62 15.998C20.62 14.7719 20.1329 13.596 19.266 12.729C18.399 11.8621 17.2231 11.375 15.997 11.375C13.443 11.375 11.374 13.444 11.374 15.998ZM19.726 11.204C19.726 11.8 20.207 12.282 20.804 12.282C21.399 12.282 21.881 11.8 21.881 11.204C21.881 11.0625 21.8531 10.9224 21.799 10.7917C21.7448 10.6609 21.6655 10.5421 21.5654 10.4421C21.4654 10.342 21.3466 10.2627 21.2159 10.2085C21.0851 10.1544 20.945 10.1265 20.8035 10.1265C20.662 10.1265 20.5219 10.1544 20.3912 10.2085C20.2604 10.2627 20.1417 10.342 20.0416 10.4421C19.9415 10.5421 19.8622 10.6609 19.808 10.7917C19.7539 10.9224 19.726 11.0625 19.726 11.204Z" fill="#FD8383"/>
</svg>
